<svg width="24" height="24" viewBox="0 0 24 24" fill="none" xmlns="http://www.w3.org/2000/svg">
<path d="M7.50056 20.5069L7.50056 14.9336H8.50056V20.5069H7.50056Z" fill="#4E5256"/>
<path d="M14.9994 14.9336V20.5069H15.9994V14.9336H14.9994Z" fill="#4E5256"/>
<path fill-rule="evenodd" clip-rule="evenodd" d="M11.5002 4.69749V1H12.5002V4.6975C15.7626 4.93072 18.3969 7.42613 18.4972 10.5672L19.4997 10.7535V13.54H24V21.9H0V13.54H4.49966V10.7535L5.50308 10.5671C5.60342 7.42597 8.23778 4.9306 11.5002 4.69749ZM6.51495 10.3791L11.9997 9.36016L17.4853 10.3793C17.2785 7.78071 14.9336 5.67969 12.0001 5.67969C9.06667 5.67969 6.72181 7.78061 6.51495 10.3791ZM11.9997 10.3773L18.4997 11.5848V13.54H5.49966V11.5848L11.9997 10.3773ZM4.49966 20.9H1V14.54H4.49966V20.9ZM5.49966 20.9V14.54H18.4997V20.9H5.49966ZM19.4997 20.9H23V14.54H19.4997V20.9Z" fill="#4E5256"/>
</svg>
