<svg width="24" height="24" viewBox="0 0 24 24" fill="none" xmlns="http://www.w3.org/2000/svg">
<path fill-rule="evenodd" clip-rule="evenodd" d="M20.5714 2.57143H13.2857V10.7143H21.4286V3.42857C21.4286 2.95518 21.0448 2.57143 20.5714 2.57143ZM21.4286 13.2857H13.2857V21.4286H20.5714C21.0448 21.4286 21.4286 21.0448 21.4286 20.5714V13.2857ZM10.7143 10.7143V2.57143H3.42857C2.95518 2.57143 2.57143 2.95518 2.57143 3.42857V10.7143H10.7143ZM2.57143 13.2857H10.7143V21.4286H3.42857C2.95518 21.4286 2.57143 21.0448 2.57143 20.5714V13.2857ZM3.42857 0C1.53502 0 0 1.53502 0 3.42857V20.5714C0 22.465 1.53502 24 3.42857 24H20.5714C22.465 24 24 22.465 24 20.5714V3.42857C24 1.53502 22.465 0 20.5714 0H3.42857Z" fill="#7E8D92"/>
</svg>
