<svg width="24" height="24" viewBox="0 0 24 24" fill="none" xmlns="http://www.w3.org/2000/svg">
<path fill-rule="evenodd" clip-rule="evenodd" d="M0 5.73913C0 2.5695 2.5695 0 5.73913 0H10.2609C11.1253 0 11.8261 0.700772 11.8261 1.56522C11.8261 2.42966 11.1253 3.13043 10.2609 3.13043H5.73913C4.29839 3.13043 3.13043 4.29839 3.13043 5.73913V18.2609C3.13043 19.7016 4.29839 20.8696 5.73913 20.8696H18.2609C19.7016 20.8696 20.8696 19.7016 20.8696 18.2609V13.7391C20.8696 12.8747 21.5703 12.1739 22.4348 12.1739C23.2992 12.1739 24 12.8747 24 13.7391V18.2609C24 21.4305 21.4305 24 18.2609 24H5.73913C2.5695 24 0 21.4305 0 18.2609V5.73913ZM13.913 1.56522C13.913 0.700773 14.6138 1.24392e-06 15.4783 1.24392e-06H22.4348C23.2992 1.24392e-06 24 0.700773 24 1.56522V8.52174C24 9.38619 23.2992 10.087 22.4348 10.087C21.5703 10.087 20.8696 9.38619 20.8696 8.52174V5.34399L13.1068 13.1068C12.4955 13.718 11.5045 13.718 10.8932 13.1068C10.282 12.4955 10.282 11.5045 10.8932 10.8932L18.656 3.13044H15.4783C14.6138 3.13044 13.913 2.42966 13.913 1.56522Z" fill="#7E8D92"/>
</svg>
