<svg width="24" height="24" viewBox="0 0 24 24" fill="none" xmlns="http://www.w3.org/2000/svg">
<path fill-rule="evenodd" clip-rule="evenodd" d="M14.5454 1.09091C14.5454 0.488418 15.0338 0 15.6363 0H22.9091C23.5116 0 24 0.488418 24 1.09091V8.36367C24 8.96616 23.5116 9.45458 22.9091 9.45458C22.3066 9.45458 21.8182 8.96616 21.8182 8.36367V3.72463L10.3472 15.1957C9.92122 15.6217 9.2305 15.6217 8.80447 15.1957C8.37844 14.7697 8.37843 14.0789 8.80446 13.6529L20.2754 2.18183H15.6363C15.0338 2.18183 14.5454 1.69341 14.5454 1.09091ZM3.51516 5.81811C3.16154 5.81811 2.8224 5.95859 2.57235 6.20864C2.3223 6.45869 2.18183 6.79783 2.18183 7.15145V20.4848C2.18183 20.8385 2.3223 21.1776 2.57235 21.4276C2.8224 21.6777 3.16154 21.8182 3.51516 21.8182H16.8485C17.2022 21.8182 17.5413 21.6777 17.7914 21.4276C18.0414 21.1776 18.1819 20.8385 18.1819 20.4848V13.2121C18.1819 12.6096 18.6703 12.1212 19.2728 12.1212C19.8753 12.1212 20.3637 12.6096 20.3637 13.2121V20.4848C20.3637 21.4171 19.9934 22.3112 19.3341 22.9704C18.6749 23.6297 17.7808 24 16.8485 24H3.51516C2.58289 24 1.68879 23.6297 1.02957 22.9704C0.370346 22.3112 0 21.4171 0 20.4848V7.15145C0 6.21917 0.370346 5.32508 1.02957 4.66585C1.68879 4.00663 2.58289 3.63629 3.51516 3.63629H10.7879C11.3904 3.63629 11.8788 4.12471 11.8788 4.7272C11.8788 5.3297 11.3904 5.81811 10.7879 5.81811H3.51516Z" fill="black"/>
</svg>
