<svg width="24" height="24" viewBox="0 0 24 24" fill="none" xmlns="http://www.w3.org/2000/svg">
<g clip-path="url(#clip0_620_11413)">
<path fill-rule="evenodd" clip-rule="evenodd" d="M0.134303 0.750171C0.357495 0.291264 0.823039 0 1.33334 0H22.6667C23.177 0 23.6425 0.291264 23.8657 0.750171C24.0889 1.20908 24.0306 1.75512 23.7155 2.15655L15.4667 12.6663V22.6666C15.4667 23.136 15.2199 23.5708 14.8169 23.8114C14.4139 24.052 13.9141 24.0631 13.5009 23.8404L9.23424 21.5416C8.80253 21.309 8.53334 20.8582 8.53334 20.3678V12.6663L0.284491 2.15655C-0.0305768 1.75512 -0.0888895 1.20908 0.134303 0.750171ZM4.07481 2.66666L10.9155 11.3823C11.0998 11.6172 11.2 11.9071 11.2 12.2056V19.5717L12.8 20.4337V12.2056C12.8 11.9071 12.9002 11.6172 13.0845 11.3823L19.9252 2.66666H4.07481Z" fill="#3EA2ED"/>
</g>
<defs>
<clipPath id="clip0_620_11413">
<rect width="24" height="24" fill="white"/>
</clipPath>
</defs>
</svg>
