<svg width="24" height="24" viewBox="0 0 24 24" fill="none" xmlns="http://www.w3.org/2000/svg">
<path fill-rule="evenodd" clip-rule="evenodd" d="M2.11257 6.94872C1.77785 7.89553 1.61187 9.05696 1.69615 9.89825C1.78971 10.8322 1.9331 11.272 2.16896 11.6331C2.43317 12.0376 2.85141 12.4114 3.70477 13.1414C4.78646 14.0666 6.05226 14.1209 6.63608 14.046L6.68914 14.0392H6.74263C7.92595 14.0392 8.47791 14.9145 8.73158 15.3822C9.01 15.2822 9.30491 15.2509 9.60948 15.309C10.1145 15.4055 10.4856 15.7202 10.7373 15.9993C10.9946 16.2844 11.206 16.6214 11.3725 16.9042C11.3749 16.9083 11.3773 16.9123 11.3796 16.9164C11.3949 16.895 11.4098 16.8743 11.4238 16.8549C11.6483 16.5453 11.9739 16.129 12.4092 15.8416C12.8858 15.5269 13.5032 15.3635 14.2026 15.6028C14.4683 15.6937 14.5979 15.7066 14.6449 15.7075C14.6551 15.6991 14.6699 15.6863 14.6904 15.6675C14.7009 15.6579 14.7135 15.6459 14.7281 15.632C14.8319 15.5333 15.0391 15.3362 15.3213 15.1885C15.6647 15.009 16.0764 14.9132 16.5996 14.9132C17.262 14.9132 17.7855 15.2114 18.1751 15.5415C18.2325 15.5901 18.2883 15.6406 18.3427 15.6925C18.2551 15.4084 18.1991 15.0861 18.2385 14.7529C18.3542 13.777 19.0952 13.1581 19.5241 12.7998C19.5377 12.7885 19.5509 12.7774 19.5638 12.7666L19.5706 12.7609C19.8229 12.5497 19.9856 12.4134 20.0991 12.2796C20.1627 12.2047 20.1802 12.165 20.1844 12.1516C20.1842 11.5942 20.1266 11.387 20.0893 11.2531C20.0876 11.2469 20.086 11.241 20.0844 11.2352C20.0831 11.2304 20.0817 11.2255 20.0802 11.2203C20.0547 11.128 20.01 10.9669 20.0037 10.7684C19.9971 10.5599 20.0322 10.3577 20.0881 10.1442C20.2213 9.63559 20.3904 9.26985 20.647 8.92474C20.8116 8.70336 21.0237 8.48153 21.2374 8.258C21.3077 8.18449 21.3781 8.11079 21.4471 8.03687C21.8308 7.6259 22.1295 7.19289 22.2612 6.85026C22.278 6.80656 22.2906 6.76794 22.3001 6.73417C22.1505 6.81796 21.9609 6.95445 21.7369 7.14682C21.3389 7.48854 20.9885 7.85897 20.6667 8.19932C20.4859 8.39041 20.3142 8.57201 20.148 8.73374C19.7475 9.12345 19.0593 9.69212 18.4746 10.0128C18.3245 10.0951 18.155 10.1759 17.9806 10.23C17.8281 10.2774 17.5586 10.3414 17.2647 10.2636C17.1013 10.2203 16.9303 10.1326 16.7879 9.98192C16.7482 9.94 16.7138 9.89634 16.6838 9.85181C16.5376 10.0745 16.2751 10.3472 15.8534 10.3878C15.2507 10.4457 14.9123 9.99794 14.7869 9.73827C14.6496 9.45399 14.6012 9.11765 14.6012 8.78378C14.6012 8.43154 14.5933 8.14459 14.5692 7.91601C14.5653 7.87835 14.561 7.84412 14.5567 7.81309C14.4343 7.8737 14.2716 7.94339 14.0951 7.9693C13.9914 7.98452 13.8157 7.99531 13.6204 7.92354C13.3962 7.84118 13.2223 7.67771 13.1231 7.47533C13.0374 7.3003 13.0274 7.138 13.0279 7.04876C13.028 7.02146 13.0292 6.99526 13.0311 6.97049L2.85023 5.68256C2.818 5.70223 2.75042 5.75354 2.65085 5.88046C2.46989 6.1111 2.27932 6.477 2.11257 6.94872ZM19.3113 17.722L19.311 17.7199ZM10.9466 17.5077C10.9284 17.5259 10.9291 17.5213 10.9477 17.5066L10.9466 17.5077ZM1.33341 4.84683C1.65065 4.44248 2.15345 4 2.8394 4H2.89215L13.7601 5.37484C13.9515 5.38295 14.1925 5.43101 14.4114 5.59467C14.5826 5.72266 14.688 5.88156 14.7499 6.03662C14.8295 6.0346 14.9103 6.03892 14.9917 6.05086C15.4862 6.12341 15.8063 6.44112 15.9826 6.78179C16.0436 6.89973 16.0904 7.02478 16.1268 7.15154C16.4554 6.95375 16.8421 6.91333 17.199 7.0267C17.7451 7.20022 18.0898 7.65043 18.211 8.18564C18.4928 7.97475 18.7767 7.73166 18.9802 7.53366C19.0625 7.45353 19.1852 7.32451 19.3339 7.1682C19.6889 6.79506 20.1917 6.26644 20.646 5.87635C20.9825 5.58743 21.384 5.28784 21.8024 5.11788C22.2215 4.94762 22.86 4.8376 23.408 5.2909C24.1762 5.92622 24.0568 6.84579 23.8243 7.45082C23.5843 8.07541 23.1275 8.69066 22.6712 9.17951C22.5544 9.30468 22.4578 9.40572 22.3758 9.49151C22.1986 9.67693 22.0895 9.79112 21.9909 9.92375C21.8845 10.0668 21.7972 10.2279 21.708 10.5684C21.686 10.6526 21.6797 10.6953 21.678 10.7115C21.6806 10.7222 21.6864 10.7455 21.6987 10.7904C21.7691 11.046 21.8589 11.3968 21.8589 12.1544C21.8589 12.6786 21.616 13.0802 21.3759 13.3631C21.1659 13.6105 20.8989 13.8334 20.6915 14.0065C20.6735 14.0215 20.656 14.0362 20.6389 14.0504C20.1214 14.4839 19.9303 14.7061 19.9014 14.95C19.8944 15.0097 19.911 15.1595 20.0376 15.4464C20.1344 15.6656 20.2559 15.8828 20.3935 16.1286C20.4316 16.1966 20.4709 16.2668 20.5112 16.3399C20.6683 16.6245 20.8858 17.0258 20.9575 17.4149C20.9965 17.6261 21.0097 17.9158 20.8799 18.2113C20.7414 18.5266 20.4921 18.7322 20.224 18.8514C19.9187 18.9871 19.5982 19.0089 19.2929 18.927C19.0095 18.851 18.7832 18.6979 18.6143 18.5548C18.3235 18.3085 18.0534 17.956 17.8404 17.678C17.8205 17.652 17.801 17.6266 17.7821 17.602C17.5292 17.2734 17.3157 17.0081 17.0926 16.8191C16.8803 16.6392 16.7277 16.5877 16.5996 16.5877C16.2871 16.5877 16.1535 16.643 16.0974 16.6724C16.0339 16.7056 16.0029 16.7344 15.9007 16.8291C15.8785 16.8497 15.853 16.8733 15.8232 16.9008C15.6631 17.0478 15.3903 17.2813 14.9511 17.3571C14.5508 17.4263 14.1245 17.3459 13.6605 17.1871C13.536 17.1445 13.4556 17.1573 13.3319 17.239C13.1668 17.348 12.9894 17.5483 12.7795 17.8378C12.715 17.9268 12.6673 17.9953 12.6174 18.067C12.5769 18.1253 12.5349 18.1856 12.4812 18.2608C12.3869 18.3928 12.2659 18.5565 12.131 18.6914C12.0238 18.7987 11.7498 19.0545 11.3391 19.07C10.8373 19.0888 10.5329 18.7568 10.3936 18.5423C10.2922 18.3863 10.1764 18.1837 10.0703 17.998C10.0204 17.9106 9.9726 17.827 9.92946 17.7538C9.77339 17.4887 9.63209 17.274 9.49396 17.1209C9.38674 17.002 9.32227 16.9663 9.30147 16.9567C9.27758 16.9637 9.22643 16.9863 9.14185 17.0529C8.95324 17.2013 8.63388 17.3585 8.24447 17.2607C7.91217 17.1773 7.71808 16.9487 7.63538 16.8403C7.54166 16.7174 7.46772 16.5803 7.41796 16.4854C7.39018 16.4324 7.36882 16.3905 7.34891 16.3514C7.32206 16.2988 7.29785 16.2513 7.26409 16.1888C7.06485 15.8197 6.94186 15.7266 6.78122 15.715C5.87834 15.8153 4.13212 15.7104 2.61631 14.4139L2.59455 14.3952C1.81032 13.7245 1.18631 13.1907 0.767011 12.5488C0.315498 11.8575 0.134042 11.1041 0.0299676 10.0652C-0.0833911 8.93359 0.133547 7.52279 0.533793 6.3906C0.734512 5.82281 0.999436 5.27251 1.33341 4.84683ZM9.31776 16.9543C9.31776 16.9543 9.31385 16.9557 9.30677 16.9553C9.31435 16.9535 9.31776 16.9543 9.31776 16.9543Z" fill="#7E8D92"/>
</svg>
